<svg height="512" viewBox="0 0 64 64" width="512" xmlns="http://www.w3.org/2000/svg"><g id="Setting-2" data-name="Setting"><path d="m61 27h-5.77a.994.994 0 0 1 -.96-.76 23.329 23.329 0 0 0 -2.45-5.91 1 1 0 0 1 .14-1.22l4.08-4.08a1 1 0 0 0 0-1.41l-5.66-5.66a1 1 0 0 0 -1.41 0l-4.08 4.08a1 1 0 0 1 -1.22.14 23.329 23.329 0 0 0 -5.91-2.45.994.994 0 0 1 -.76-.96v-5.77a1 1 0 0 0 -1-1h-8a1 1 0 0 0 -1 1v5.77a.994.994 0 0 1 -.76.96 23.329 23.329 0 0 0 -5.91 2.45 1 1 0 0 1 -1.22-.14l-4.08-4.08a1 1 0 0 0 -1.41 0l-5.66 5.66a1 1 0 0 0 0 1.41l4.08 4.08a1 1 0 0 1 .14 1.22 23.329 23.329 0 0 0 -2.45 5.91.994.994 0 0 1 -.96.76h-5.77a1 1 0 0 0 -1 1v8a1 1 0 0 0 1 1h5.77a.994.994 0 0 1 .96.76 23.329 23.329 0 0 0 2.45 5.91 1 1 0 0 1 -.14 1.22l-4.08 4.08a1 1 0 0 0 0 1.41l5.66 5.66a1 1 0 0 0 1.41 0l4.08-4.08a1 1 0 0 1 1.22-.14 23.329 23.329 0 0 0 5.91 2.45.994.994 0 0 1 .76.96v5.77a1 1 0 0 0 1 1h8a1 1 0 0 0 1-1v-5.77a.994.994 0 0 1 .76-.96 23.329 23.329 0 0 0 5.91-2.45 1 1 0 0 1 1.22.14l4.08 4.08a1 1 0 0 0 1.41 0l5.66-5.66a1 1 0 0 0 0-1.41l-4.08-4.08a1 1 0 0 1 -.14-1.22 23.329 23.329 0 0 0 2.45-5.91.994.994 0 0 1 .96-.76h5.77a1 1 0 0 0 1-1v-8a1 1 0 0 0 -1-1zm-29 11a6 6 0 1 1 6-6 6 6 0 0 1 -6 6z" fill="#57a4ff"/><path d="m32 23a9 9 0 1 0 9 9 9 9 0 0 0 -9-9zm0 15a6 6 0 1 1 6-6 6 6 0 0 1 -6 6z" fill="#57a4ff"/><g fill="#004fac"><path d="m61 26-5.767-.01a23.654 23.654 0 0 0 -2.568-6.172l4.083-4.083a2 2 0 0 0 0-2.825l-5.658-5.66a2.045 2.045 0 0 0 -2.825 0l-4.086 4.073a23.608 23.608 0 0 0 -6.179-2.552v-5.771a2 2 0 0 0 -2-2h-8a2 2 0 0 0 -2 2l-.01 5.767a23.654 23.654 0 0 0 -6.172 2.568l-4.083-4.085a2.045 2.045 0 0 0 -2.825 0l-5.66 5.66a2 2 0 0 0 0 2.825l4.073 4.086a23.608 23.608 0 0 0 -2.552 6.179h-5.771a2 2 0 0 0 -2 2v8a2 2 0 0 0 2 2l5.767.01a23.648 23.648 0 0 0 2.568 6.172l-4.085 4.083a2 2 0 0 0 0 2.825l5.66 5.66a2.045 2.045 0 0 0 2.825 0l4.086-4.073a23.608 23.608 0 0 0 6.179 2.552v5.771a2 2 0 0 0 2 2h8a2 2 0 0 0 2-2l.01-5.767a23.654 23.654 0 0 0 6.172-2.568l4.083 4.083a2.045 2.045 0 0 0 2.825 0l5.66-5.66a2 2 0 0 0 0-2.825l-4.073-4.086a23.6 23.6 0 0 0 2.552-6.177h5.771a2 2 0 0 0 2-2v-8a2 2 0 0 0 -2-2zm0 10h-5.771a2 2 0 0 0 -1.929 1.51 21.858 21.858 0 0 1 -2.344 5.653 2 2 0 0 0 .3 2.433l4.084 4.08-5.657 5.66-4.083-4.084a2 2 0 0 0 -2.433-.3 21.862 21.862 0 0 1 -5.657 2.348 2 2 0 0 0 -1.51 1.929v5.771h-8v-5.771a2 2 0 0 0 -1.51-1.929 21.841 21.841 0 0 1 -5.652-2.343 2.018 2.018 0 0 0 -1.029-.282 1.986 1.986 0 0 0 -1.405.579l-4.08 4.084-5.66-5.657 4.084-4.081a2 2 0 0 0 .3-2.432 21.858 21.858 0 0 1 -2.348-5.658 2 2 0 0 0 -1.929-1.51h-5.771v-8h5.771a2 2 0 0 0 1.929-1.51 21.841 21.841 0 0 1 2.343-5.652 2 2 0 0 0 -.3-2.434l-4.083-4.08 5.657-5.66 4.083 4.083a2 2 0 0 0 2.433.3 21.862 21.862 0 0 1 5.657-2.347 2 2 0 0 0 1.51-1.929v-5.771h8v5.771a2 2 0 0 0 1.51 1.929 21.841 21.841 0 0 1 5.652 2.343 2 2 0 0 0 2.434-.3l4.08-4.083 5.66 5.657-4.083 4.083a2 2 0 0 0 -.3 2.433 21.862 21.862 0 0 1 2.347 5.657 2 2 0 0 0 1.929 1.51h5.771z"/><path d="m32 22a10 10 0 1 0 10 10 10.011 10.011 0 0 0 -10-10zm0 18a8 8 0 1 1 8-8 8.009 8.009 0 0 1 -8 8z"/><path d="m29.352 14.166a1 1 0 0 0 -1.18-.78 19.031 19.031 0 0 0 -14.966 15.814 1 1 0 0 0 .842 1.136 1.064 1.064 0 0 0 .148.011 1 1 0 0 0 .988-.854 17.026 17.026 0 0 1 13.389-14.148 1 1 0 0 0 .779-1.179z"/><path d="m15.42 35.774a1 1 0 0 0 -1.95.441 18.841 18.841 0 0 0 1.471 4.16 1 1 0 1 0 1.8-.882 16.851 16.851 0 0 1 -1.321-3.719z"/><path d="m32 25a7 7 0 1 0 7 7 7.008 7.008 0 0 0 -7-7zm0 12a5 5 0 1 1 5-5 5.006 5.006 0 0 1 -5 5z"/></g></g></svg>